<?xml version="1.0" encoding="utf-8"?>
<!-- Generator: Adobe Illustrator 24.1.1, SVG Export Plug-In . SVG Version: 6.00 Build 0)  -->
<svg version="1.1" id="Layer_1" xmlns="http://www.w3.org/2000/svg" xmlns:xlink="http://www.w3.org/1999/xlink" x="0px" y="0px"
	 viewBox="0 0 24 24" style="enable-background:new 0 0 24 24;" xml:space="preserve">

<path class="st0" d="M1,21v-2h22v2H1z M4,18c-0.5,0-1-0.2-1.4-0.6S2,16.6,2,16V5c0-0.5,0.2-1,0.6-1.4S3.5,3,4,3h16
	c0.6,0,1,0.2,1.4,0.6S22,4.5,22,5v11c0,0.6-0.2,1-0.6,1.4S20.6,18,20,18H4z M4,16h16V5H4V16z M4,16V5V16z"/>
</svg>
