<svg width="36" height="36" viewBox="0 0 36 36" fill="none" xmlns="http://www.w3.org/2000/svg">
<path d="M32.6205 15.1438H31.4458V15.0833H18.3208V20.9166H26.5626C25.3602 24.3124 22.1293 26.75 18.3208 26.75C13.4886 26.75 9.57082 22.8321 9.57082 18C9.57082 13.1678 13.4886 9.24996 18.3208 9.24996C20.5513 9.24996 22.5806 10.0914 24.1257 11.4659L28.2506 7.341C25.646 4.91361 22.1621 3.41663 18.3208 3.41663C10.2672 3.41663 3.73749 9.94631 3.73749 18C3.73749 26.0536 10.2672 32.5833 18.3208 32.5833C26.3745 32.5833 32.9042 26.0536 32.9042 18C32.9042 17.0221 32.8035 16.0677 32.6205 15.1438Z" fill="#FFC107"/>
<path d="M5.41895 11.2121L10.2103 14.726C11.5068 11.5162 14.6466 9.24996 18.3208 9.24996C20.5513 9.24996 22.5806 10.0914 24.1257 11.4659L28.2506 7.341C25.646 4.91361 22.1621 3.41663 18.3208 3.41663C12.7194 3.41663 7.86165 6.57902 5.41895 11.2121Z" fill="#FF3D00"/>
<path d="M18.3208 32.5833C22.0877 32.5833 25.5104 31.1418 28.0982 28.7975L23.5847 24.9781C22.1205 26.0872 20.3005 26.75 18.3208 26.75C14.5277 26.75 11.307 24.3314 10.0936 20.9561L5.33801 24.6201C7.75155 29.3429 12.653 32.5833 18.3208 32.5833Z" fill="#4CAF50"/>
<path d="M32.6205 15.1439H31.4458V15.0834H18.3208V20.9167H26.5626C25.9851 22.5479 24.9358 23.9544 23.5825 24.9789L23.5847 24.9774L28.0982 28.7968C27.7788 29.087 32.9041 25.2917 32.9041 18C32.9041 17.0222 32.8035 16.0677 32.6205 15.1439Z" fill="#1976D2"/>
</svg>
