<?xml version="1.0" encoding="utf-8"?>
<!-- Generator: Adobe Illustrator 24.1.1, SVG Export Plug-In . SVG Version: 6.00 Build 0)  -->
<svg version="1.1" id="Layer_1" xmlns="http://www.w3.org/2000/svg" xmlns:xlink="http://www.w3.org/1999/xlink" x="0px" y="0px"
	 viewBox="0 0 24 24" style="enable-background:new 0 0 24 24;" xml:space="preserve">
<path d="M12,12c-1.1,0-2-0.4-2.8-1.2C8.4,10,8,9.1,8,8s0.4-2,1.2-2.8S10.9,4,12,4s2,0.4,2.8,1.2S16,6.9,16,8s-0.4,2-1.2,2.8
	C14,11.6,13.1,12,12,12z M4,20v-2.8c0-0.6,0.1-1.1,0.4-1.6c0.3-0.5,0.7-0.8,1.2-1.1c1-0.5,2.1-0.9,3.2-1.2S10.9,13,12,13
	s2.2,0.1,3.3,0.4s2.1,0.6,3.1,1.2c0.5,0.3,0.9,0.6,1.2,1.1c0.3,0.5,0.4,1,0.4,1.6V20H4z M6,18h12v-0.8c0-0.2,0-0.4-0.1-0.5
	s-0.2-0.3-0.4-0.4c-0.9-0.4-1.8-0.8-2.7-1C13.9,15.1,12.9,15,12,15s-1.9,0.1-2.8,0.3c-0.9,0.2-1.8,0.6-2.7,1
	c-0.2,0.1-0.3,0.2-0.4,0.4C6,16.9,6,17,6,17.2V18z M12,10c0.6,0,1-0.2,1.4-0.6S14,8.6,14,8c0-0.6-0.2-1-0.6-1.4S12.6,6,12,6
	s-1,0.2-1.4,0.6S10,7.5,10,8c0,0.5,0.2,1,0.6,1.4S11.4,10,12,10z"/>
</svg>
