<?xml version="1.0" encoding="utf-8"?>
<!-- Generator: Adobe Illustrator 24.1.1, SVG Export Plug-In . SVG Version: 6.00 Build 0)  -->
<svg version="1.1" id="Layer_1" xmlns="http://www.w3.org/2000/svg" xmlns:xlink="http://www.w3.org/1999/xlink" x="0px" y="0px"
	 viewBox="0 0 24 24" style="enable-background:new 0 0 24 24;" xml:space="preserve">
<path d="M12,22c-2.3-0.6-4.2-1.9-5.7-4S4,13.6,4,11.1V5l8-3l8,3v6.1c0,2.5-0.8,4.8-2.3,6.9C16.2,20.1,14.3,21.4,12,22z M12,19.9
	c1.7-0.6,3.2-1.7,4.3-3.3c1.1-1.6,1.7-3.5,1.7-5.5V6.4l-6-2.3L6,6.4v4.7c0,2,0.6,3.9,1.7,5.5S10.3,19.4,12,19.9z"/>
</svg>
