<svg xmlns="http://www.w3.org/2000/svg" xmlns:xlink="http://www.w3.org/1999/xlink" viewBox="0 0 1606.85 193.2"><defs><style>.cls-1{fill:#fff;}.cls-2{fill:none;}.cls-3{clip-path:url(#clip-path);}.cls-4{fill:#e4edf4;}.cls-5{mask:url(#mask);}</style><clipPath id="clip-path" transform="translate(53.95 3.47)"><rect class="cls-2" width="1467.81" height="187.92"/></clipPath><mask id="mask" x="53.95" y="0" width="1467.81" height="65.23" maskUnits="userSpaceOnUse"><g transform="translate(53.95 3.47)"><g id="path-1-inside-1_475_1006" data-name="path-1-inside-1 475 1006"><path class="cls-1" d="M0,1.53H1467.81V61.76H0Z"/></g></g></mask></defs><g id="Layer_2" data-name="Layer 2"><g id="Layer_1-2" data-name="Layer 1"><g class="cls-3"><path class="cls-4" d="M0,1.53H1467.81V61.76H0Z" transform="translate(53.95 3.47)"/><g class="cls-5"><path class="cls-4" d="M0,6.53H1467.81v-10H0Z" transform="translate(53.95 3.47)"/></g><ellipse class="cls-4" cx="77.08" cy="104.36" rx="77.08" ry="57.08"/><ellipse class="cls-4" cx="179.24" cy="53.34" rx="58.15" ry="45.63"/><path class="cls-4" d="M254.78,35.85c0,19.8-22.13,35.85-49.44,35.85s-49.43-16.05-49.43-35.85S178,0,205.34,0,254.78,16.05,254.78,35.85Z" transform="translate(53.95 3.47)"/><ellipse class="cls-4" cx="328.46" cy="50.29" rx="44.56" ry="36.7"/><path class="cls-4" d="M392.58,37.31c0,18.26-20.32,33.06-45.38,33.06s-45.39-14.8-45.39-33.06S322.13,4.24,347.2,4.24,392.58,19,392.58,37.31Z" transform="translate(53.95 3.47)"/><ellipse class="cls-4" cx="477.27" cy="47.25" rx="54.85" ry="44.42"/><ellipse class="cls-4" cx="1086.21" cy="64.94" rx="52.56" ry="31.19"/><ellipse class="cls-4" cx="1161.75" cy="44.21" rx="52.08" ry="37.49"/><ellipse class="cls-4" cx="1261.81" cy="57.79" rx="58.11" ry="35.85"/><ellipse class="cls-4" cx="1365.29" cy="72.14" rx="50.56" ry="36.7"/><ellipse class="cls-4" cx="1467.97" cy="95.04" rx="77.72" ry="41.03"/><ellipse class="cls-4" cx="1539.33" cy="140.29" rx="67.52" ry="52.92"/><ellipse class="cls-4" cx="1005.56" cy="45.4" rx="44.35" ry="31.19"/><ellipse class="cls-4" cx="923.43" cy="47.28" rx="52.08" ry="37.49"/><ellipse class="cls-4" cx="828.52" cy="42.96" rx="60.93" ry="33.63"/><ellipse class="cls-4" cx="739.73" cy="35.44" rx="51.16" ry="34.46"/><ellipse class="cls-4" cx="660.84" cy="50.29" rx="46.99" ry="29.76"/><ellipse class="cls-4" cx="572.21" cy="51.3" rx="61.06" ry="43.6"/></g></g></g></svg>