<svg xmlns="http://www.w3.org/2000/svg" viewBox="0 0 775.81 117.02"><defs><style>.cls-1{isolation:isolate;}.cls-2{fill:#2b9b9d;}</style></defs><g id="Layer_2" data-name="Layer 2"><g id="Layer_1-2" data-name="Layer 1"><path d="M253.27,8h9.13l7.66,26.21L277.72,8H287L276.33,42.14l9.22,28.37L304.87,7.7h10.62L290.25,84.59h-8.53L270.15,50.15,258.49,84.59H250L224.72,7.7h10.62l19.32,62.81,9.22-28.37Z"/><path d="M325.22,6.82,324.9,8,322.3,16a32.8,32.8,0,0,1,3.62-.2,26.68,26.68,0,0,1,11.54,2.46,27.44,27.44,0,0,1,9,6.77,31.34,31.34,0,0,1,5.86,9.78,32.22,32.22,0,0,1,2,11.36,32.85,32.85,0,0,1-1.94,11A31.08,31.08,0,0,1,346.84,67a27.7,27.7,0,0,1-9,7,26.57,26.57,0,0,1-11.95,2.62,27,27,0,0,1-11.72-2.51,28,28,0,0,1-8.83-6.58l-3.27,10a39.2,39.2,0,0,0,7.77,4.7,37.67,37.67,0,0,0,15.93,3.28,38.08,38.08,0,0,0,15.59-3.17,39.31,39.31,0,0,0,12.48-8.69,39.94,39.94,0,0,0,8.26-12.56,38.37,38.37,0,0,0,.12-29.12,42.25,42.25,0,0,0-8-12.68A39.17,39.17,0,0,0,342,10.19,36.89,36.89,0,0,0,326,6.81h-.82"/><path d="M379.71,84.93V7.35h35.62a23.52,23.52,0,0,1,10.08,2.13,26.54,26.54,0,0,1,13.24,13.66,22.94,22.94,0,0,1,1.88,9,24.37,24.37,0,0,1-2.17,10.16,23.25,23.25,0,0,1-6.09,8.19,22,22,0,0,1-9.2,4.7l20.15,29.72h-12l-19-27.86h-22V84.93Zm10.55-36.6h25.19A12.94,12.94,0,0,0,423,46.09a15.22,15.22,0,0,0,5-6,17.89,17.89,0,0,0,1.82-8,15.84,15.84,0,0,0-2.11-8,16.92,16.92,0,0,0-5.51-5.85,13.58,13.58,0,0,0-7.5-2.19H390.26Z"/><g class="cls-1"><path class="cls-2" d="M250.48,111V96h5.09a7.33,7.33,0,0,1,4,1,6.33,6.33,0,0,1,2.4,2.7,8.78,8.78,0,0,1,.8,3.77,8.42,8.42,0,0,1-.88,4,6.23,6.23,0,0,1-2.49,2.62,7.47,7.47,0,0,1-3.81.93Zm10.79-7.52a7.4,7.4,0,0,0-.66-3.19,5.12,5.12,0,0,0-1.93-2.18,5.75,5.75,0,0,0-3.11-.8H252v12.38h3.61a5.63,5.63,0,0,0,3.13-.82,5.28,5.28,0,0,0,1.92-2.23A7.5,7.5,0,0,0,261.27,103.46Z"/><path class="cls-2" d="M273.73,111.09a6.47,6.47,0,0,1-2.87-.64,6.78,6.78,0,0,1-2.22-1.72,8,8,0,0,1-1.43-2.45,8,8,0,0,1,0-5.66,7.76,7.76,0,0,1,1.49-2.43A7.32,7.32,0,0,1,271,96.5a6.62,6.62,0,0,1,5.66,0,7,7,0,0,1,2.2,1.76,8.25,8.25,0,0,1,1.43,2.45,7.75,7.75,0,0,1,.51,2.76,7.9,7.9,0,0,1-2,5.29,6.84,6.84,0,0,1-2.24,1.68A6.4,6.4,0,0,1,273.73,111.09Zm-5.55-7.61a7,7,0,0,0,.4,2.36,6.47,6.47,0,0,0,1.14,2,5.56,5.56,0,0,0,1.76,1.4,5,5,0,0,0,2.25.52,4.93,4.93,0,0,0,2.32-.54,5.65,5.65,0,0,0,1.75-1.44,6.52,6.52,0,0,0,1.11-2,7,7,0,0,0,0-4.62,6.46,6.46,0,0,0-1.15-2A5.54,5.54,0,0,0,276,97.74a4.89,4.89,0,0,0-2.24-.51,5,5,0,0,0-2.29.53,5.48,5.48,0,0,0-1.75,1.42,6.66,6.66,0,0,0-1.12,2A6.92,6.92,0,0,0,268.18,103.48Z"/><path class="cls-2" d="M287.14,98.71V111h-1.47V96h1.22l9.84,12.51V96h1.48v15h-1.37Z"/><path class="cls-2" d="M304.08,111V96h5.09a7.33,7.33,0,0,1,4,1,6.27,6.27,0,0,1,2.4,2.7,8.64,8.64,0,0,1,.8,3.77,8.54,8.54,0,0,1-.87,4,6.32,6.32,0,0,1-2.5,2.62,7.47,7.47,0,0,1-3.81.93Zm10.79-7.52a7.4,7.4,0,0,0-.66-3.19,5.05,5.05,0,0,0-1.93-2.18,5.75,5.75,0,0,0-3.11-.8h-3.61v12.38h3.61a5.63,5.63,0,0,0,3.13-.82,5.28,5.28,0,0,0,1.92-2.23A7.35,7.35,0,0,0,314.87,103.46Z"/><path class="cls-2" d="M331.37,109.67V111H321.29V96h9.89v1.31h-8.41v5.41h7.33V104h-7.33v5.72Z"/><path class="cls-2" d="M353.84,109.67V111H343.77V96h9.88v1.31h-8.41v5.41h7.33V104h-7.33v5.72Z"/><path class="cls-2" d="M358.74,111V96h1.48v13.69h8.66V111Z"/><path class="cls-2" d="M390.14,97.29H384.8V111h-1.48V97.29H378V96h12.16Z"/><path class="cls-2" d="M397.66,96h1.25l6.23,15h-1.56l-1.88-4.69h-6.85L393,111h-1.58Zm3.58,9.15-3-7.41-3,7.41Z"/><path class="cls-2" d="M409.41,111V96h1.47v13.69h8.66V111Z"/><path class="cls-2" d="M433.9,109.67V111H423.83V96h9.88v1.31h-8.4v5.41h7.33V104h-7.33v5.72Z"/><path class="cls-2" d="M440.28,98.71V111H438.8V96H440l9.84,12.51V96h1.48v15H450Z"/><path class="cls-2" d="M467.87,97.29h-5.35V111H461V97.29H455.7V96h12.17Z"/><path class="cls-2" d="M477.56,111.09a6.44,6.44,0,0,1-2.87-.64,6.78,6.78,0,0,1-2.22-1.72,8,8,0,0,1-1.44-2.45,8.14,8.14,0,0,1-.5-2.8,7.82,7.82,0,0,1,2-5.29,7.32,7.32,0,0,1,2.25-1.69,6.4,6.4,0,0,1,2.79-.62,6.31,6.31,0,0,1,2.87.65,7,7,0,0,1,2.21,1.76,8.22,8.22,0,0,1,1.42,2.45,7.88,7.88,0,0,1,0,5.63,8,8,0,0,1-1.47,2.42,7,7,0,0,1-2.24,1.68A6.4,6.4,0,0,1,477.56,111.09ZM472,103.48a7,7,0,0,0,.41,2.36,6.09,6.09,0,0,0,1.14,2,5.56,5.56,0,0,0,1.76,1.4,5,5,0,0,0,2.25.52,4.86,4.86,0,0,0,2.31-.54,5.54,5.54,0,0,0,1.75-1.44,6.32,6.32,0,0,0,1.11-2,7,7,0,0,0,0-4.62,6.27,6.27,0,0,0-1.15-2,5.62,5.62,0,0,0-1.76-1.39,5.19,5.19,0,0,0-4.53,0,5.52,5.52,0,0,0-1.76,1.42,6.85,6.85,0,0,0-1.11,2A6.68,6.68,0,0,0,472,103.48Z"/><path class="cls-2" d="M507.06,109.67V111H497V96h9.88v1.31h-8.4v5.41h7.33V104h-7.33v5.72Z"/><path class="cls-2" d="M513.44,98.71V111H512V96h1.23L523,108.49V96h1.48v15h-1.37Z"/><path class="cls-2" d="M529.39,103.36a7.86,7.86,0,0,1,1.86-5.1,6.6,6.6,0,0,1,2.23-1.74,6.86,6.86,0,0,1,3-.64,6.24,6.24,0,0,1,3.44.92,5.63,5.63,0,0,1,2.1,2.35l-1.16.72a4.58,4.58,0,0,0-1.23-1.57,4.79,4.79,0,0,0-1.57-.84,5.67,5.67,0,0,0-1.66-.25,5.1,5.1,0,0,0-2.39.54,5.39,5.39,0,0,0-1.74,1.43,6.48,6.48,0,0,0-1.07,2,7.25,7.25,0,0,0-.36,2.25,6.66,6.66,0,0,0,.43,2.39,6.31,6.31,0,0,0,1.18,2,5.87,5.87,0,0,0,1.78,1.4,5,5,0,0,0,2.23.52,5.56,5.56,0,0,0,3.39-1.21,4.43,4.43,0,0,0,1.24-1.58l1.22.63a4.76,4.76,0,0,1-1.43,1.9,6.83,6.83,0,0,1-2.17,1.18,7.2,7.2,0,0,1-2.33.41,6.12,6.12,0,0,1-2.83-.67,7.22,7.22,0,0,1-2.23-1.77,8.11,8.11,0,0,1-1.45-2.5A8.22,8.22,0,0,1,529.39,103.36Z"/><path class="cls-2" d="M553.08,111.09a6.52,6.52,0,0,1-3-.64,5.17,5.17,0,0,1-1.94-1.7,7.44,7.44,0,0,1-1-2.42,12.22,12.22,0,0,1-.32-2.78V96h1.46v7.57a10.9,10.9,0,0,0,.24,2.28,6.2,6.2,0,0,0,.79,2,4.09,4.09,0,0,0,1.48,1.41,5.48,5.48,0,0,0,4.7,0,4.14,4.14,0,0,0,1.48-1.43,6.44,6.44,0,0,0,.77-2,11.3,11.3,0,0,0,.23-2.25V96h1.48v7.57a12.26,12.26,0,0,1-.34,2.87,7,7,0,0,1-1.09,2.41,5.39,5.39,0,0,1-2,1.64A6.39,6.39,0,0,1,553.08,111.09Z"/><path class="cls-2" d="M575.11,109.67V111H565V96h9.88v1.31h-8.41v5.41h7.33V104h-7.33v5.72Z"/><path class="cls-2" d="M581.49,98.71V111H580V96h1.22l9.85,12.51V96h1.47v15h-1.37Z"/><path class="cls-2" d="M609.07,97.29h-5.34V111h-1.48V97.29h-5.34V96h12.16Z"/><path class="cls-2" d="M613.42,111V96h6.34a3.88,3.88,0,0,1,1.77.41,4.62,4.62,0,0,1,1.41,1.08,5.07,5.07,0,0,1,.92,1.52,4.63,4.63,0,0,1,.33,1.7,5.11,5.11,0,0,1-.41,2,4.38,4.38,0,0,1-1.16,1.61,3.88,3.88,0,0,1-1.76.86l3.67,5.79h-1.67l-3.53-5.53H614.9V111Zm1.48-6.84h4.9a2.49,2.49,0,0,0,1.54-.49,3.06,3.06,0,0,0,1-1.28,4,4,0,0,0,.36-1.68,3.55,3.55,0,0,0-1.51-2.92,2.58,2.58,0,0,0-1.53-.48H614.9Z"/><path class="cls-2" d="M633.74,96H635l6.23,15h-1.56l-1.87-4.69h-6.86L629.05,111h-1.58Zm3.57,9.15-3-7.41-3,7.41Z"/><path class="cls-2" d="M661.09,98.79a3.83,3.83,0,0,0-.74-.64,5,5,0,0,0-1-.5,6.46,6.46,0,0,0-1.13-.33,5.85,5.85,0,0,0-1.28-.13,4.51,4.51,0,0,0-2.88.75,2.48,2.48,0,0,0-.92,2,2,2,0,0,0,.43,1.39,3.07,3.07,0,0,0,1.36.83c.62.21,1.41.43,2.37.65a16.56,16.56,0,0,1,2.77.8,4.25,4.25,0,0,1,1.79,1.26,3.33,3.33,0,0,1,.64,2.14,3.75,3.75,0,0,1-.41,1.79,3.45,3.45,0,0,1-1.11,1.26,4.91,4.91,0,0,1-1.72.75,9.17,9.17,0,0,1-2.17.25,10.09,10.09,0,0,1-2.23-.25,8.83,8.83,0,0,1-2-.72,7.94,7.94,0,0,1-1.77-1.21l.74-1.2a6,6,0,0,0,1,.79,7.73,7.73,0,0,0,1.25.66,7.42,7.42,0,0,0,1.47.46,8.85,8.85,0,0,0,1.64.16,5.06,5.06,0,0,0,2.8-.66,2.41,2.41,0,0,0,.5-3.42,3.65,3.65,0,0,0-1.52-.92,23.94,23.94,0,0,0-2.5-.7,16.81,16.81,0,0,1-2.64-.8,3.65,3.65,0,0,1-1.61-1.17,3.16,3.16,0,0,1-.54-1.93,3.91,3.91,0,0,1,.69-2.35,4.24,4.24,0,0,1,1.89-1.46,7.19,7.19,0,0,1,2.76-.49,8.33,8.33,0,0,1,1.85.2,6.6,6.6,0,0,1,2.95,1.53Z"/><path class="cls-2" d="M673.36,111.09a6.52,6.52,0,0,1-3-.64,5.1,5.1,0,0,1-1.94-1.7,7.44,7.44,0,0,1-1-2.42,11.69,11.69,0,0,1-.33-2.78V96h1.46v7.57a10.9,10.9,0,0,0,.24,2.28,6.45,6.45,0,0,0,.8,2,4,4,0,0,0,1.47,1.41,4.81,4.81,0,0,0,2.33.52,4.7,4.7,0,0,0,2.37-.54,4.06,4.06,0,0,0,1.48-1.43,6.2,6.2,0,0,0,.77-2,10.62,10.62,0,0,0,.24-2.25V96h1.47v7.57a12.26,12.26,0,0,1-.33,2.87,7,7,0,0,1-1.09,2.41,5.34,5.34,0,0,1-2,1.64A6.38,6.38,0,0,1,673.36,111.09Z"/><path class="cls-2" d="M692.81,111V96h1.48v13.69H703V111Z"/><path class="cls-2" d="M712.41,111.09a6.52,6.52,0,0,1-3-.64,5.1,5.1,0,0,1-1.94-1.7,7.44,7.44,0,0,1-1.05-2.42,11.69,11.69,0,0,1-.33-2.78V96h1.46v7.57a10.9,10.9,0,0,0,.24,2.28,6.45,6.45,0,0,0,.8,2,4,4,0,0,0,1.48,1.41,4.74,4.74,0,0,0,2.32.52,4.67,4.67,0,0,0,2.37-.54,4.06,4.06,0,0,0,1.48-1.43,6.2,6.2,0,0,0,.77-2,10.62,10.62,0,0,0,.24-2.25V96h1.47v7.57a12.26,12.26,0,0,1-.33,2.87,7,7,0,0,1-1.09,2.41,5.34,5.34,0,0,1-2,1.64A6.38,6.38,0,0,1,712.41,111.09Z"/><path class="cls-2" d="M730.38,111.09a6.16,6.16,0,0,1-2.79-.65,7.24,7.24,0,0,1-2.23-1.74,8,8,0,0,1-1.47-2.45,7.63,7.63,0,0,1-.52-2.79,8,8,0,0,1,.52-2.88,7.66,7.66,0,0,1,1.44-2.42,7.05,7.05,0,0,1,2.2-1.67,6.28,6.28,0,0,1,2.77-.61,6.46,6.46,0,0,1,3.61.91A5.85,5.85,0,0,1,736,99.15l-1.14.76a4.73,4.73,0,0,0-1.92-2,5.59,5.59,0,0,0-2.68-.65,4.79,4.79,0,0,0-2.25.53,5.34,5.34,0,0,0-1.72,1.41,6.12,6.12,0,0,0-1.09,2,7.27,7.27,0,0,0-.37,2.32,6.81,6.81,0,0,0,.42,2.4,6.39,6.39,0,0,0,1.2,2,6,6,0,0,0,1.81,1.37,5,5,0,0,0,2.21.5,5.18,5.18,0,0,0,2.59-.69,8.17,8.17,0,0,0,2.35-2.12v1.56A6.37,6.37,0,0,1,730.38,111.09Zm4.82-6.34h-3.34v-1.14h4.58V111H735.2Z"/><path class="cls-2" d="M746.24,96h1.25l6.23,15h-1.56l-1.88-4.69h-6.85L741.55,111H740Zm3.58,9.15-3-7.41-3,7.41Z"/><path class="cls-2" d="M758,111V96h6.33a3.92,3.92,0,0,1,1.78.41,4.58,4.58,0,0,1,1.4,1.08,5.32,5.32,0,0,1,.93,1.52,4.63,4.63,0,0,1,.33,1.7,5,5,0,0,1-.42,2,4.38,4.38,0,0,1-1.16,1.61,3.83,3.83,0,0,1-1.76.86l3.67,5.79h-1.66l-3.53-5.53h-4.44V111Zm1.47-6.84h4.9a2.49,2.49,0,0,0,1.55-.49,3.22,3.22,0,0,0,1-1.28,4,4,0,0,0,.36-1.68,3.55,3.55,0,0,0-1.51-2.92,2.62,2.62,0,0,0-1.53-.48h-4.78Z"/></g><path class="cls-2" d="M626.33,5.94V83h-2.42V44.69h-59.7V83h-2.42V5.94h2.42V42.52h59.7V5.94Z"/><path class="cls-2" d="M667.9,83.56q-9.37,0-15.67-3.31a26.35,26.35,0,0,1-10-9A38.19,38.19,0,0,1,637,58.7a64.75,64.75,0,0,1-1.56-14.22V5.94h2.23V44.48a63.09,63.09,0,0,0,1.45,13.57A35.83,35.83,0,0,0,644,69.93a24.4,24.4,0,0,0,9.21,8.36q5.79,3.09,14.61,3.1t14.83-3.21a24.37,24.37,0,0,0,9.26-8.52,36.24,36.24,0,0,0,4.74-11.89A63.75,63.75,0,0,0,698,44.48V5.94h2.23V44.48a63,63,0,0,1-1.68,14.65,37.15,37.15,0,0,1-5.41,12.54,26.45,26.45,0,0,1-9.92,8.68Q677,83.56,667.9,83.56Z"/><path class="cls-2" d="M775.81,63a16.92,16.92,0,0,1-3.18,9.88,23.38,23.38,0,0,1-8.5,7.33A25.2,25.2,0,0,1,752.32,83H708.66V5.94h41.67a22.16,22.16,0,0,1,11.48,2.87,20.31,20.31,0,0,1,7.43,7.38,18.59,18.59,0,0,1,2.59,9.4,17.56,17.56,0,0,1-3.65,10.74,21,21,0,0,1-9.89,7.17,23.64,23.64,0,0,1,12.81,7.43A18.19,18.19,0,0,1,775.81,63ZM711.31,8.11v35h38.22a19.56,19.56,0,0,0,10.22-2.6,20.21,20.21,0,0,0,6.9-6.62,15.36,15.36,0,0,0,2.53-8.25A16.41,16.41,0,0,0,766.79,17a18.17,18.17,0,0,0-6.64-6.41,19.31,19.31,0,0,0-9.82-2.44ZM773.16,63a15.81,15.81,0,0,0-2.59-8.69,20,20,0,0,0-7.1-6.56,20.43,20.43,0,0,0-10.22-2.55H711.31v35.6h41a21.73,21.73,0,0,0,18-9.28A14.83,14.83,0,0,0,773.16,63Z"/><path d="M520,82.31H510.1l-19-28.58-20,29.83H459.2V8.73h8.66v59l42-59h11L496.5,46.54Z"/><polygon points="70.72 26.99 99.44 112.08 108.59 84.98 80.33 0 70.72 26.99"/><polygon points="0 0 39.49 117.02 57.63 117.02 18.72 0 0 0"/><polygon points="160.57 0 121.07 117.02 102.93 117.02 141.84 0 160.57 0"/><circle cx="64.52" cy="69.32" r="10.81"/></g></g></svg>