<svg xmlns="http://www.w3.org/2000/svg" viewBox="0 0 551.09 79.54"><defs><style>.cls-1{fill:#2b9b9d;}</style></defs><g id="Layer_2" data-name="Layer 2"><g id="Layer_1-2" data-name="Layer 1"><path d="M28.54,2.09h9.14l7.66,26.2L53,2.09h9.23L51.61,36.2l9.22,28.37L80.15,1.76H90.77L65.53,78.65H57L45.43,44.21,33.77,78.65H25.24L0,1.76H10.62L29.94,64.57,39.16,36.2Z"/><path d="M100.5.88l-.32,1.22L97.58,10a30.5,30.5,0,0,1,3.62-.21,26.68,26.68,0,0,1,11.54,2.46,27.72,27.72,0,0,1,9,6.77,31.53,31.53,0,0,1,5.86,9.78,32.27,32.27,0,0,1,2.05,11.37,32.83,32.83,0,0,1-1.94,11,31.32,31.32,0,0,1-5.62,9.84,27.81,27.81,0,0,1-9,7,26.44,26.44,0,0,1-12,2.62,26.84,26.84,0,0,1-11.72-2.51,27.74,27.74,0,0,1-8.83-6.58l-3.27,10a39.64,39.64,0,0,0,7.77,4.69,40.12,40.12,0,0,0,31.52.11,39.39,39.39,0,0,0,12.48-8.68,40.1,40.1,0,0,0,8.26-12.57A38.37,38.37,0,0,0,137.53,26a42.2,42.2,0,0,0-8-12.67,38.94,38.94,0,0,0-12.31-9.07A36.68,36.68,0,0,0,101.32.87h-.82"/><path d="M155,79V1.42h35.62a23.59,23.59,0,0,1,10.08,2.13,26.44,26.44,0,0,1,13.24,13.66,22.89,22.89,0,0,1,1.88,9,24.5,24.5,0,0,1-2.17,10.16,23.5,23.5,0,0,1-6.09,8.2,22.08,22.08,0,0,1-9.2,4.7L218.5,79H206.55l-19-27.87h-22V79Zm10.54-36.61h25.2a12.87,12.87,0,0,0,7.56-2.24,15.26,15.26,0,0,0,5-5.95,18,18,0,0,0,1.81-8,15.77,15.77,0,0,0-2.11-8,16.8,16.8,0,0,0-5.5-5.85,13.66,13.66,0,0,0-7.5-2.18h-24.5Z"/><path class="cls-1" d="M401.61,0V77.08h-2.43V38.76H339.49V77.08h-2.43V0h2.43V36.58h59.69V0Z"/><path class="cls-1" d="M443.18,77.62q-9.37,0-15.67-3.31a26.2,26.2,0,0,1-10-9,38.19,38.19,0,0,1-5.24-12.59,64.68,64.68,0,0,1-1.56-14.22V0H413V38.54a63,63,0,0,0,1.45,13.57A35.88,35.88,0,0,0,419.25,64a24.52,24.52,0,0,0,9.2,8.36q5.81,3.09,14.62,3.09t14.83-3.2a24.47,24.47,0,0,0,9.26-8.53,36.18,36.18,0,0,0,4.74-11.88,63.83,63.83,0,0,0,1.39-13.3V0h2.24V38.54a63,63,0,0,1-1.68,14.65,37.15,37.15,0,0,1-5.41,12.54,26.56,26.56,0,0,1-9.92,8.69Q452.33,77.61,443.18,77.62Z"/><path class="cls-1" d="M551.09,57.1A16.92,16.92,0,0,1,547.91,67a23.38,23.38,0,0,1-8.5,7.33,25.11,25.11,0,0,1-11.81,2.77H483.94V0h41.67a22.06,22.06,0,0,1,11.48,2.88,20.31,20.31,0,0,1,7.43,7.38,18.53,18.53,0,0,1,2.59,9.39,17.59,17.59,0,0,1-3.65,10.75,21.06,21.06,0,0,1-9.89,7.16A23.6,23.6,0,0,1,546.38,45,18.14,18.14,0,0,1,551.09,57.1ZM486.59,2.17v35h38.22A19.57,19.57,0,0,0,535,34.52a20,20,0,0,0,6.9-6.62,15.35,15.35,0,0,0,2.52-8.25A16.43,16.43,0,0,0,542.07,11a18.25,18.25,0,0,0-6.64-6.41,19.44,19.44,0,0,0-9.82-2.44ZM548.44,57.1a15.77,15.77,0,0,0-2.59-8.68,20,20,0,0,0-7.1-6.57,20.43,20.43,0,0,0-10.22-2.55H486.59V74.91h41a21.79,21.79,0,0,0,18-9.28A14.88,14.88,0,0,0,548.44,57.1Z"/><path d="M295.23,76.38h-9.85l-19-28.58-20,29.82h-11.9V2.79h8.66v59l42-59h11L271.78,40.6Z"/></g></g></svg>